<svg width="46" height="48" viewBox="0 0 46 48" fill="none" xmlns="http://www.w3.org/2000/svg">
<path d="M40.1429 35.9314C36.16 35.907 32.2553 34.8239 28.8291 32.793C25.4029 30.7621 22.5784 27.8565 20.6453 24.3741C18.7122 20.8918 17.7401 16.958 17.8285 12.976C17.9169 8.9941 19.0628 5.10733 21.1486 1.71423C15.6532 2.67897 10.7137 5.65484 7.29232 10.0621C3.87095 14.4694 2.21271 19.9925 2.64063 25.5555C3.06856 31.1185 5.55199 36.323 9.60717 40.1552C13.6623 43.9873 18.9989 46.1727 24.5771 46.2857C28.3936 46.2954 32.1478 45.3188 35.4757 43.4506C38.8036 41.5824 41.5923 38.886 43.5714 35.6228C42.4377 35.8101 41.2918 35.9133 40.1429 35.9314V35.9314Z" stroke="#F2FBFF" stroke-opacity="0.7" stroke-width="3.42857" stroke-linecap="round" stroke-linejoin="round"/>
</svg>
